<svg width="1690" height="956" viewBox="0 0 1690 956" fill="none" xmlns="http://www.w3.org/2000/svg">
<g clip-path="url(#clip0_63_72)">
<mask id="mask0_63_72" style="mask-type:luminance" maskUnits="userSpaceOnUse" x="0" y="0" width="1690" height="956">
<path d="M1689.49 0.5H0.492188V955.5H1689.49V0.5Z" fill="white"/>
</mask>
<g mask="url(#mask0_63_72)">
<path d="M730.048 343.609C731.861 342.699 733.262 340.881 734.911 339.558C732.355 339.062 729.306 337.325 727.41 338.235C705.484 348.487 683.806 359.318 664.683 374.447C661.221 377.176 661.057 380.483 665.343 383.542C666.332 383.046 667.651 382.632 668.557 381.888C687.351 366.345 708.617 354.853 730.13 343.609M882.124 210.417C873.387 216.039 865.474 215.377 854.511 212.897C843.549 210.417 834.647 202.48 831.679 191.07C827.476 174.7 836.872 160.066 844.703 153.287C852.533 146.507 864.815 134.933 876.767 147.582C883.278 155.023 884.35 168.417 883.196 179.082C882.619 184.125 876.025 193.799 870.502 195.452C864.98 197.106 851.132 196.61 849.731 180.24C849.731 179.578 850.473 177.759 848.412 178.255C846.351 178.669 845.445 181.976 845.774 183.547C846.846 188.921 846.022 196.527 850.39 198.594C858.55 202.397 867.947 207.523 876.767 200.33C881.053 196.775 885.421 197.354 887.647 200.413C890.037 203.802 886.493 207.688 882.207 210.499M892.098 207.771C894.406 202.81 894.076 195.369 885.916 193.385C885.339 193.22 884.597 191.07 884.927 190.243C888.883 179.247 891.356 169.988 890.285 158.909C889.295 149.153 880.476 139.811 871.821 137.661C859.704 134.602 846.928 142.456 839.098 150.311C831.267 158.165 821.458 176.602 824.591 188.755C833.328 219.346 851.05 223.231 875.613 219.511C882.454 218.519 889.872 212.649 892.18 207.771M843.714 344.353C844.208 345.428 848.412 353.944 851.132 356.755C850.802 356.837 842.889 352.538 842.807 352.29C840.252 349.479 843.466 344.601 843.714 344.353ZM851.544 348.073C850.885 346.42 850.39 343.196 851.05 342.782C860.117 337.491 869.431 332.53 878.498 327.57C885.916 330.298 894.076 333.688 895.642 340.467C897.208 346.916 889.295 350.554 883.361 352.786C871.986 356.92 859.292 368.329 851.462 348.073M872.728 318.723C867.04 314.92 859.127 319.715 854.759 313.68C854.347 313.019 858.715 306.818 863.743 307.396C869.266 308.141 874.047 310.208 876.19 315.747C876.767 317.318 874.871 320.211 872.728 318.723ZM855.418 322.692C859.787 323.436 867.865 321.7 866.958 325.585C865.309 333.192 854.099 330.381 849.483 336.333C849.071 335.424 848 333.77 848.247 333.605C851.462 330.546 845.857 321.204 855.418 322.692ZM909.325 257.212C908.913 254.401 903.802 255.806 902.319 257.708C889.46 274.16 867.535 277.55 854.841 277.302C842.148 277.054 836.295 275.897 836.295 275.897C836.295 275.897 812.309 273.003 810.496 264.487C808.682 255.971 830.525 247.373 831.432 246.877C848.577 237.369 868.029 241.834 885.998 237.617C890.202 236.625 896.879 235.468 895.56 230.838C894.159 226.125 887.894 225.546 882.042 227.283C876.19 229.019 852.368 241.586 841.076 224.389C840.746 223.893 839.18 222.239 837.449 223.562C835.636 224.885 836.955 226.952 837.449 227.448C845.774 237.452 836.13 237.535 830.608 240.594C825.085 243.653 815.112 249.109 808.105 254.318C801.923 258.865 797.802 266.058 806.457 271.432C816.925 277.633 824.591 279.782 835.224 281.601C831.844 286.975 816.43 293.589 817.007 303.511C817.584 313.432 827.97 318.227 837.696 320.542C841.241 321.369 840.829 323.849 841.488 326.66C843.466 334.763 835.801 339.806 835.636 346.172C835.389 358.077 845.609 361.467 854.759 366.51C870.09 374.861 879.157 420.085 870.75 435.711C863.331 449.353 858.221 463.821 857.149 479.447C856.902 482.589 857.314 485.813 860.941 486.64C865.392 487.715 864.568 483.829 865.392 481.431C867.865 473.99 870.337 466.467 873.057 459.108C884.597 428.601 884.35 398.672 867.04 370.479C863.578 364.857 865.804 363.699 869.101 364.113C877.014 365.188 882.289 359.566 888.883 357.581C896.384 355.349 903.638 349.81 903.802 341.129C903.967 333.026 896.302 329.719 890.037 326.081C887.729 324.759 883.031 324.924 883.855 320.955C886.411 309.215 877.921 304.999 870.173 301.692C861.353 297.971 851.544 298.467 847.588 308.967C844.043 318.393 838.273 313.763 833.74 312.522C829.371 311.282 824.92 308.389 824.014 302.849C823.437 299.542 825.085 297.145 827.723 295.326C840.664 286.231 850.967 284.247 870.914 283.007C890.862 281.767 896.714 282.511 907.512 274.822C913.694 270.44 910.232 262.999 909.325 257.212ZM867.7 530.955C867.04 535.915 868.689 540.297 874.294 540.38C880.146 540.462 880.393 535.336 880.723 531.12C881.877 515.494 883.526 500.199 884.597 484.573C884.762 482.093 886.328 478.041 883.113 477.297C879.239 476.636 878.25 481.514 877.344 484.573C874.871 493.585 884.103 505.242 872.563 511.526C876.684 514.254 875.118 520.041 875.53 523.844C875.53 524.258 874.211 526.49 873.717 526.903C870.832 521.943 870.008 513.427 870.008 513.427C863.496 519.959 868.442 524.34 867.617 531.037M1066.51 198.263C1071.05 197.436 1075.41 196.113 1079.87 195.039C1078.88 189.417 1075.25 191.07 1073.02 191.153C1046.65 192.145 1023.73 204.464 999.829 213.558C996.944 214.633 996.78 217.031 997.686 219.263C998.923 222.405 1001.07 221.33 1003.37 220.255C1023.73 210.83 1044.42 202.397 1066.59 198.263M1146.14 146.673C1150.09 144.275 1155.04 142.787 1159.74 142.291C1162.62 142.043 1161.71 145.515 1161.63 147.83C1161.14 168.913 1173.01 186.11 1179.52 205.043C1182.82 214.716 1185.29 224.72 1188.34 234.475C1193.94 252.416 1180.43 264.735 1175.4 279.452C1173.83 283.999 1171.85 288.381 1169.63 292.68C1168.39 295.078 1170.12 299.046 1165.92 299.956C1165.59 297.31 1165.01 294.664 1165.09 292.019C1165.34 283.751 1165.92 275.483 1166.33 267.216C1168.31 236.873 1171.61 206.448 1162.37 176.602C1159.65 167.755 1155.95 158.992 1147.95 153.039C1145.89 151.468 1143.75 148.161 1146.22 146.673M1169.05 410.991C1164.76 413.057 1160.64 416.53 1156.27 416.861C1151.66 417.191 1157.35 412.892 1155.2 411.652C1156.03 406.361 1156.11 401.235 1160.56 397.928C1163.36 402.309 1166.17 406.691 1169.05 410.991ZM1168.47 341.625C1168.89 342.451 1169.46 342.038 1169.55 344.022C1169.63 346.007 1166.83 351.546 1165.42 355.349C1165.01 353.447 1164.6 351.546 1164.6 351.463C1164.11 346.007 1165.59 343.444 1168.47 341.625ZM1165.67 384.865C1164.85 365.022 1175.97 347.66 1179.02 328.479C1179.68 324.511 1179.27 321.7 1174.99 320.625C1170.86 319.55 1170.04 322.609 1168.89 325.503C1168.06 327.487 1166.83 329.389 1165.84 331.29C1165.42 328.975 1164.43 329.389 1164.43 323.766C1164.43 318.144 1193.04 252.416 1193.45 252.003C1193.86 253.408 1194.27 254.814 1194.85 256.137C1208.53 290.2 1213.07 327.983 1232.93 359.235C1244.47 377.341 1226.67 377.258 1220.98 381.806C1208.53 391.81 1194.36 401.648 1179.35 405.782C1169.96 408.345 1166 393.794 1165.67 384.865ZM1178.12 140.141C1177.29 142.952 1177.62 146.673 1173.01 145.763C1171.52 145.515 1170.04 145.267 1171.28 142.952C1172.76 140.389 1171.52 135.759 1176.72 136.338C1179.93 136.669 1177.71 138.901 1178.12 140.059M1157.51 344.353C1157.26 346.833 1153.39 351.133 1150.59 355.68C1150.67 353.365 1150.26 354.77 1150.83 351.546C1151.41 348.404 1154.79 343.94 1156.85 340.137C1157.1 341.542 1157.76 341.873 1157.51 344.353ZM1180.84 90.0391C1177.38 90.7005 1176.88 85.8226 1176.8 81.4407C1180.34 74.2478 1185.29 67.3029 1195.34 67.2203C1199.96 67.2203 1202.76 71.7675 1201.69 74.9919C1198.56 84.6651 1189.82 88.3029 1180.84 90.0391ZM1205.15 136.007C1210.51 134.271 1216.69 131.212 1221.14 130.881C1225.6 130.551 1223.37 132.948 1224.44 134.106C1219.83 135.842 1214.14 139.066 1210.76 139.314C1207.38 139.563 1206.8 136.917 1205.15 136.007ZM1205.81 97.48C1212.74 94.8343 1207.96 83.4249 1216.78 82.4328C1220.24 82.0194 1226.01 82.7635 1225.1 86.6493C1223.37 94.0902 1217.11 97.9761 1208.2 98.9682C1207.71 98.7201 1206.8 98.0587 1205.81 97.48ZM1138.88 137.33C1128.99 136.669 1126.85 146.921 1120.5 148.492C1120.25 148.492 1120.25 149.814 1120.17 150.476C1124.29 150.31 1136.25 149.153 1136.57 149.649C1145.23 162.712 1157.26 173.543 1159.9 190.326C1164.6 220.503 1161.96 250.598 1159.49 280.609C1158.34 294.086 1162.29 308.058 1156.93 321.038C1143.33 354.026 1124.79 384.369 1106.74 414.959C1104.84 418.101 1103.36 420.994 1107.07 423.061C1110.69 425.046 1112.51 421.573 1114.73 419.258C1129.82 402.558 1139.54 382.219 1152.24 363.865C1153.31 362.377 1154.87 361.302 1156.27 359.979C1156.77 361.715 1157.43 363.451 1157.59 365.188C1159.08 380.648 1151.74 394.372 1148.77 409.006C1147.46 415.538 1140.12 423.144 1145.23 427.939C1151.33 433.561 1156.77 423.227 1163.2 421.573C1166.58 420.664 1170.04 416.778 1170.62 423.723C1170.86 426.616 1170.45 430.006 1174.41 429.676C1178.78 429.345 1178.78 425.294 1178.45 422.235C1177.95 418.101 1177.95 414.959 1182.32 412.644C1201.53 402.392 1221.8 394.207 1238.95 380.4C1246.37 374.447 1251.56 368.66 1241.83 360.723C1233.84 354.109 1230.62 345.014 1227.82 335.589C1224.69 325.007 1220.73 314.672 1218.01 304.007C1211.09 277.054 1188.42 253.078 1206.39 222.322C1209.93 216.287 1211.17 208.267 1213.56 201.57C1205.4 205.621 1206.23 215.129 1201.61 220.42C1198.15 224.306 1202.27 233.235 1196.5 232.243C1191.39 231.168 1189.9 221.743 1191.64 218.023C1196.33 208.019 1191.39 200.413 1187.43 193.054C1181 181.149 1181.33 168.995 1182.82 156.429C1182.9 154.527 1182.82 152.543 1183.15 150.641C1184.38 143.366 1180.67 131.708 1196 142.374C1206.23 149.484 1220.16 147.334 1231.28 138.984C1232.52 138.074 1234.17 135.759 1233.76 134.933C1229.8 125.59 1237.71 124.763 1242.58 123.937C1251.31 122.531 1257.25 116.744 1264.17 112.362C1265.9 111.287 1270.85 111.37 1267.96 106.905C1265.82 103.598 1262.93 103.598 1259.06 104.59C1237.88 110.047 1217.52 119.059 1195.51 121.622C1191.22 122.118 1191.39 121.704 1192.13 117.57C1195.67 98.8855 1212.32 108.476 1221.97 103.102C1229.06 99.2162 1234 94.0076 1233.67 85.6572C1233.43 79.4565 1227.66 76.8108 1222.96 76.6454C1214.8 76.3974 1209.52 74.1651 1204.91 66.6415C1201.36 60.7715 1193.78 55.0668 1186.69 57.7951C1174.33 62.5904 1166.99 73.3384 1167.4 86.6493C1167.65 94.421 1175.07 97.9761 1182.73 99.1335C1183.39 99.2162 1186.53 101.614 1182.98 101.697C1179.44 101.697 1160.97 97.0666 1154.71 86.0706C1153.97 84.8304 1153.22 80.862 1152.07 82.5155C1151 84.169 1151.25 86.5667 1152.07 87.7241C1158.09 97.232 1166.08 104.342 1177.62 106.409C1180.76 106.988 1186.2 105.086 1186.44 108.972C1186.69 114.925 1186.2 124.929 1182.9 126.417C1168.47 133.031 1154.71 138.736 1138.8 137.661M1224.61 29.7677C1209.03 43.492 1188.83 38.6968 1171.19 43.6574C1162.87 44.8975 1166.5 39.1102 1167.4 36.5472C1170.53 27.37 1167.98 9.26382 1186.85 26.1299C1198.89 36.8779 1210.26 31.9173 1215.7 17.1181C1216.61 14.7205 1218.59 12.6536 1220.07 10.4213C1221.31 12.3229 1223.45 14.1418 1223.53 16.126C1223.86 20.6732 1230.54 24.6417 1224.61 29.8504M1271.34 36.2165C1269.94 35.4724 1268.13 33.9842 1261.86 34.5629C1255.6 35.1417 1246.53 36.2165 1236.81 37.4566C1234.33 37.7873 1230.29 36.7125 1231.53 35.307C1239.2 26.626 1231.45 20.4252 1228.65 13.6457C1226.58 8.68508 1227.49 0.16937 1220.07 0.500077C1213.48 0.830785 1211.17 7.94099 1209.19 13.9764C1206.39 22.5748 1201.86 26.626 1191.88 22.4921C1183.06 18.8543 1180.26 11.4961 1176.55 4.22053C1175.81 2.73235 1173.91 1.82291 1172.6 0.582754C1172.02 2.07094 1171.28 3.47644 1170.78 5.0473C1165.01 25.2204 1160.48 45.9723 1144.57 61.5156C1142.76 63.2518 1135.42 64.0786 1140.94 68.9565C1145.15 72.6769 1148.2 68.2951 1151.08 65.4841C1157.92 58.7872 1159.98 48.2046 1174.41 48.5353C1197.32 49.1141 1236.89 43.8227 1240.84 43.4094C1244.8 42.996 1243.15 46.4684 1243.23 47.1298C1251.23 45.2282 1261.45 40.8464 1265.82 39.6889C1270.19 38.5314 1268.62 37.2913 1271.34 36.2165ZM657.842 622.312C657.595 623.222 656.771 623.883 656.193 624.627C655.534 623.883 654.38 623.305 654.133 622.478C646.714 596.765 623.47 595.525 603.441 589.738C592.395 586.513 580.938 584.943 569.646 582.545C569.646 582.297 544.588 578.411 532.224 576.013C528.927 575.352 525.053 572.458 526.372 567.663C529.834 555.592 533.625 541.951 538.241 530.376C538.901 528.722 545.989 532.856 551.1 531.864C558.765 530.376 567.008 531.864 574.921 532.525C614.486 535.75 666.085 527.565 676.141 526.655C686.197 525.746 701.033 525.746 701.033 525.746C699.632 528.309 698.726 531.12 696.83 533.27C682.817 549.64 676.141 569.813 668.228 589.242C663.859 599.907 661.221 611.316 657.76 622.312M523.652 578.163C551.182 589.407 580.938 591.639 609.623 597.427C642.016 604.041 653.391 632.73 652.402 658.856C652.402 660.757 652.072 662.659 651.907 664.643C651.578 664.643 650.259 712.017 650.012 735.745C649.847 742.111 640.203 747.568 632.207 751.454C624.212 755.34 570.965 782.458 557.941 788.08C545 793.702 512.195 809.079 488.044 818.009C460.843 828.095 433.395 837.19 405.617 845.54C397.292 848.02 389.297 851.327 394.325 836.115C398.364 823.961 401.496 811.642 409.409 801.308C410.233 800.316 411.305 798.745 412.871 799.076C414.519 799.406 414.437 799.902 414.849 802.796C415.261 805.69 416.25 811.891 417.074 816.438C417.981 821.564 418.393 829.501 423.916 829.335C430.922 829.087 431.252 819.579 430.592 815.363C426.718 792.544 438.34 774.603 447.572 755.918C469.58 711.107 488.703 665.056 504.776 617.765C508.897 605.694 513.431 593.872 517.964 581.966C518.789 579.734 520.107 576.84 523.569 578.246M528.762 464.813C528.597 463.821 528.103 462.581 528.433 461.754C531.153 454.396 534.038 447.038 536.922 439.762C540.632 443.317 538.901 448.03 539.56 451.833C538.324 458.53 533.708 461.837 528.762 464.896M530.081 427.361C527.114 435.463 527.196 444.723 521.344 451.75H521.179V451.916C521.426 463.904 521.591 475.396 503.54 472.337C489.527 469.939 476.751 467.542 470.404 451.75C463.81 435.215 475.597 431.742 485.818 428.601C494.061 426.038 503.292 426.616 512.112 426.368C518.129 426.203 524.146 426.947 530.164 427.278M491.505 490.195C493.236 478.786 506.013 479.199 512.936 481.183C522.91 483.994 511.041 494.825 516.151 499.868C514.667 506.73 513.349 513.51 505.518 511.608C494.638 509.045 490.022 499.289 491.423 490.112M1671.85 430.42C1638.63 417.935 1563.13 407.684 1552.17 405.534C1541.21 403.384 1466.61 395.199 1369.76 402.309C1272.91 409.42 1190.89 432.073 1133.2 458.86C1075.5 485.648 1067.09 486.971 1024.72 507.805C982.272 528.64 935.125 547.903 880.641 584.943C844.043 607.679 807.611 630.415 773.734 657.037C754.94 671.753 735.405 685.478 716.282 699.698C700.127 711.769 681.581 721.442 664.683 733.182C659.985 736.407 657.76 734.257 657.924 729.792C659.243 697.383 658.914 664.808 662.952 632.73C667.651 595.525 682.9 561.71 706.144 531.947C708.452 529.053 712.161 525.581 710.018 521.778C707.71 517.726 702.6 518.47 698.478 519.049C688.093 520.372 669.876 523.018 659.491 523.431C629.158 524.506 606.903 527.069 576.405 526.738C553.16 526.49 545.907 520.537 549.286 496.809C551.017 484.904 555.139 480.852 566.596 479.199C578.96 477.38 591.077 472.667 596.682 459.439C597.588 457.207 599.319 454.065 596.187 452.66C593.549 451.42 592.395 454.231 591.241 456.38C586.213 465.557 578.136 470.518 568.08 472.419C564.041 473.164 559.672 476.801 555.963 473.412C552.171 469.939 556.87 465.888 558.188 463.325C565.277 449.683 567.832 430.916 589.346 430.916C590.252 430.916 591.901 430.75 592.148 429.014C592.395 427.278 589.51 426.203 588.027 425.79C577.641 423.061 560.414 437.364 556.293 451.171C554.15 458.282 551.182 465.144 547.885 471.758C545.495 476.636 540.632 476.057 536.098 475.396C534.12 475.065 532.142 474.569 530.164 474.156C532.471 472.089 534.615 469.774 537.087 467.872C547.226 460.101 548.05 449.105 545.165 438.357C543.434 431.742 537.417 425.955 550.605 428.105C553.078 428.518 555.716 425.79 554.562 423.557C551.1 416.778 556.787 417.522 559.755 417.026C575.498 414.38 590.252 407.187 606.573 406.939C608.798 406.939 612.507 406.774 612.425 403.302C612.343 399.25 608.056 399.829 605.996 400.077C597.094 401.317 588.274 403.632 579.29 404.872C556.87 407.849 534.12 425.624 512.195 403.88C501.809 393.628 486.395 385.278 493.319 366.841C499.171 351.215 514.42 349.148 527.526 351.133C540.549 353.034 547.638 364.526 551.759 377.424C554.067 384.699 550.935 390.652 547.143 393.876C541.538 398.589 534.12 404.128 525.712 400.656C518.459 397.68 514.832 392.223 515.574 383.211C515.821 381.062 515.986 378.829 514.585 378.829C513.184 378.829 511.618 379.904 511.37 382.715C511.123 385.526 510.546 399.085 519.036 404.294C528.433 409.998 537.912 409.006 545.66 402.806C564.453 387.924 564.7 376.928 544.918 354.688C532.801 341.046 516.233 341.294 501.232 349.81C491.753 355.184 484.005 364.361 485.983 376.845C488.868 395.117 503.952 403.88 516.975 414.132C518.294 415.124 519.695 415.951 521.097 416.861C519.448 417.687 517.882 419.01 516.151 419.258C500.902 421.077 485.488 422.317 470.24 424.55C463.728 425.459 455.238 426.534 451.941 430.833C449.303 434.305 457.958 432.817 460.678 435.132C461.502 435.876 461.585 437.861 461.502 439.266C460.513 457.372 470.157 468.451 485.406 475.809C486.56 476.388 490.352 476.057 487.796 478.455C479.389 486.309 484.005 495.073 487.219 502.1C491.505 511.443 497.688 521.529 510.711 519.628C518.953 518.388 520.684 510.451 522.415 503.837C523.734 498.959 522.663 493.419 524.146 488.624C527.196 478.207 535.933 483.994 541.703 484.325C545.907 484.573 544.423 489.451 542.775 493.006C537.335 505.242 541.456 517.892 530.164 531.947C513.596 552.451 508.403 582.628 499.913 609.167C486.395 651.332 468.921 691.926 452.188 732.769C444.028 752.611 427.213 767.989 423.998 790.229C423.339 794.694 421.113 791.056 419.712 790.229C413.613 786.178 407.018 782.54 402.815 791.883C397.21 804.45 389.132 825.119 387.318 830.162C385.505 835.205 381.878 852.65 378.911 859.016C375.944 865.465 380.642 870.839 382.126 876.296C383.444 881.091 387.731 886.63 393.171 884.646C398.116 882.827 396.798 876.213 395.149 872.079C391.11 861.91 396.633 862.406 403.886 862.406C424.905 862.571 445.759 861.249 466.036 854.8C468.179 854.138 470.981 853.477 470.404 850.253C469.91 847.359 467.272 847.111 465.376 848.02C449.056 855.627 431.417 851.41 414.437 853.725C412.046 854.056 406.112 854.717 407.348 852.319C408.585 849.922 411.387 849.178 413.86 848.268C441.061 838.926 468.591 830.245 495.544 820.241C514.585 813.131 532.966 804.202 551.594 795.934C600.556 774.355 648.198 750.627 693.285 721.359C747.357 686.222 796.648 644.553 851.05 609.911C888.389 586.183 925.151 563.777 965.787 546.415C966.694 546.084 969.331 547.407 970.403 547.325C969.908 547.986 918.474 583.868 894.159 602.387C862.424 626.446 831.102 651.001 800.357 676.3C765.985 704.493 727.657 727.808 691.06 753.273C673.833 765.261 657.018 777.993 639.049 788.741C613.084 804.201 586.213 817.926 559.755 832.56C510.299 859.926 458.04 880.76 404.381 897.874C370.339 908.705 320.718 924.91 309.508 928.134C298.298 931.358 269.696 937.642 247.523 941.858C225.351 946.075 176.06 949.299 149.766 948.638C123.554 947.977 79.8679 944.752 48.6283 936.98C32.4727 932.929 19.1196 924.827 8.4866 912.012C7.41505 910.772 5.51925 907.548 2.96403 909.201C0.408808 910.689 -0.33303 913.17 1.97491 915.733C9.47572 924.166 16.3995 933.177 27.6095 937.559C55.5521 948.39 84.6486 951.449 114.24 953.599C176.142 958.063 221.312 955.914 282.142 940.784C326.653 929.705 363.085 918.378 406.771 904.571C434.054 895.973 461.008 886.3 487.384 875.386C544.588 851.658 598.907 822.225 651.001 788.906C691.967 762.698 732.355 735.414 771.673 706.891C806.951 681.344 840.087 652.82 874.871 626.529C904.38 604.206 934.63 582.876 964.963 561.71C984.91 547.738 1045.25 512.6 1057.78 505.573L1117.45 474.569C1170.62 448.939 1243.65 429.593 1301.59 424.136C1431.83 409.337 1496.78 412.479 1603.27 428.022L1684.96 442.738C1690.07 443.235 1696.17 439.597 1672.02 430.502" fill="#0D0D10"/>
</g>
</g>
<defs>
<clipPath id="clip0_63_72">
<rect width="1689" height="955" fill="white" transform="translate(0.492188 0.5)"/>
</clipPath>
</defs>
</svg>
