<svg width="22" height="23" viewBox="0 0 22 23" fill="none" xmlns="http://www.w3.org/2000/svg">
<path d="M21.12 0.792969H0.88C0.39325 0.792969 0 1.18622 0 1.67297V21.913C0 22.3997 0.39325 22.793 0.88 22.793H21.12C21.6068 22.793 22 22.3997 22 21.913V1.67297C22 1.18622 21.6068 0.792969 21.12 0.792969ZM6.52575 19.5397H3.2615V9.04022H6.52575V19.5397ZM4.895 7.60472C4.5208 7.60472 4.155 7.49375 3.84386 7.28586C3.53272 7.07796 3.29022 6.78247 3.14702 6.43676C3.00382 6.09104 2.96635 5.71062 3.03935 5.34361C3.11236 4.9766 3.29255 4.63947 3.55715 4.37487C3.82176 4.11027 4.15888 3.93008 4.52589 3.85707C4.8929 3.78407 5.27332 3.82154 5.61904 3.96474C5.96475 4.10794 6.26024 4.35044 6.46814 4.66158C6.67604 4.97272 6.787 5.33852 6.787 5.71272C6.78425 6.75772 5.93725 7.60472 4.895 7.60472ZM18.7467 19.5397H15.4852V14.433C15.4852 13.2147 15.4633 11.65 13.7885 11.65C12.0918 11.65 11.8305 12.9755 11.8305 14.345V19.5397H8.57175V9.04022H11.7013V10.4757H11.7452C12.1797 9.65072 13.244 8.77897 14.8335 8.77897C18.139 8.77897 18.7467 10.9542 18.7467 13.7812V19.5397Z" fill="black"/>
</svg>
