<svg width="170" height="73" viewBox="0 0 170 73" fill="none" xmlns="http://www.w3.org/2000/svg">
<g clip-path="url(#clip0_596_752)">
<mask id="mask0_596_752" style="mask-type:luminance" maskUnits="userSpaceOnUse" x="0" y="0" width="170" height="73">
<path d="M169.779 0H0V73H169.779V0Z" fill="white"/>
</mask>
<g mask="url(#mask0_596_752)">
<path d="M19.8439 54.0048C19.8439 59.5335 15.4706 59.5335 10.6998 59.5335H4.23498V48.0254H10.9418C14.6063 48.0254 19.8439 48.0254 19.8439 53.9874M10.6998 29.7754H4.23498V18.2673H10.9418C14.6063 18.2673 19.8439 18.2673 19.8439 24.2293C19.8439 29.7581 15.4706 29.7581 10.6998 29.7581M18.703 9.20299C18.703 14.5064 14.3298 14.5411 10.0429 14.5411H4.23498V3.77825H10.0429C14.2261 3.77825 18.703 3.83025 18.703 9.22032M4.23498 33.5363H10.0429C14.2261 33.5363 18.703 33.5883 18.703 38.9784C18.703 44.3685 14.3298 44.3165 10.0429 44.3165H4.23498V33.5363ZM18.703 46.1363C21.2267 44.7498 22.8862 42.2194 22.8862 38.9264C22.8862 35.4428 21.6934 33.311 19.913 31.9765C22.3503 30.7286 24.027 28.4582 24.027 24.2293C24.027 20.0005 22.2639 17.7474 18.703 16.3609C21.2267 14.9744 22.8862 12.444 22.8862 9.151C22.8862 0.814578 16.2831 0.0519943 10.3714 0.0519943H0V63.2251H10.6998C17.0263 63.2251 24.027 62.7051 24.027 54.0221C24.027 49.9145 22.2639 47.5228 18.703 46.1536M34.5539 19.3246C34.5539 18.1287 34.8478 16.5169 35.6948 15.0783C36.6455 13.5012 38.6506 12.496 41.3126 12.496C43.9746 12.496 45.634 13.2585 46.8786 15.0783C47.6392 16.2222 48.1232 18.042 48.1577 19.3246H34.5367H34.5539ZM34.5021 22.8082H52.5483C52.7384 19.4285 51.9778 16.0316 50.5431 13.7438C48.5899 10.6415 45.029 9.01235 41.2608 9.01235C37.8382 9.01235 34.9342 10.2082 32.8427 12.5826C30.8375 14.8184 29.8523 17.9207 29.8523 21.4563C29.8523 25.1826 30.7511 28.2849 32.7562 30.5207C34.7959 32.9124 37.6654 34.0043 41.3299 34.0043C47.3799 34.0043 51.1827 31.1446 52.2371 25.5639L48.0886 25.2346C47.5182 28.8568 45.3229 30.5727 41.278 30.5727C36.8011 30.5727 34.6058 28.0423 34.5194 22.7908M34.5539 49.1C34.5539 47.9041 34.8478 46.2923 35.6948 44.8538C36.6455 43.2766 38.6506 42.2714 41.3126 42.2714C43.9746 42.2714 45.634 43.034 46.8786 44.8538C47.6392 45.9976 48.1232 47.8174 48.1577 49.1H34.5367H34.5539ZM34.5021 52.5836H52.5483C52.7384 49.2039 51.9778 45.807 50.5431 43.5192C48.5899 40.4169 45.029 38.7878 41.2608 38.7878C37.8382 38.7878 34.9342 39.9836 32.8427 42.3754C30.8375 44.6111 29.8523 47.7134 29.8523 51.2491C29.8523 54.9753 30.7511 58.0776 32.7562 60.3134C34.7959 62.7051 37.6654 63.797 41.3299 63.797C47.3799 63.797 51.1827 60.9373 52.2371 55.3566L48.0886 55.0273C47.5182 58.6496 45.3229 60.3654 41.278 60.3654C36.8011 60.3654 34.6058 57.835 34.5194 52.5836M65.8236 13.1719H72.5823V9.60161H65.8236V2.96368H61.5886V9.60161H56.5931V13.1719H61.5886V27.5743C61.5886 31.9245 63.8185 33.675 68.9696 33.675C70.2142 33.675 71.5797 33.4843 72.4959 33.2937L72.3922 29.3768C71.4415 29.6194 70.1969 29.8101 69.298 29.8101C66.7225 29.8101 65.8236 29.3248 65.8236 27.4183V13.1719ZM74.6911 42.8433L74.7949 38.7878C74.3627 38.7878 73.2737 38.7878 72.8416 38.8397C68.6585 39.221 65.3742 41.1795 64.4581 43.8485V39.3597H60.1712V63.2251H64.4581V52.2889C64.4581 44.4205 68.3128 42.7913 73.2219 42.7913C73.7404 42.7913 74.3109 42.7913 74.6911 42.8433ZM85.5465 13.1719H92.3052V9.60161H85.5465V2.96368H81.3115V9.60161H76.316V13.1719H81.3115V27.5743C81.3115 31.9245 83.5414 33.675 88.6925 33.675C89.9371 33.675 91.3026 33.4843 92.2188 33.2937L92.115 29.3768C91.1643 29.6194 89.9198 29.8101 89.0209 29.8101C86.4454 29.8101 85.5465 29.3248 85.5465 27.4183V13.1719ZM96.834 50.6598C96.834 53.2422 96.2636 55.9112 94.6906 57.627C93.6016 58.8229 92.0286 59.5855 89.7988 59.5855C84.3192 59.5855 82.9018 56.2405 82.9018 50.6598C82.9018 47.8521 83.3858 45.599 84.7168 44.1778C85.8058 42.8953 87.4825 42.2194 89.9025 42.2194C94.3795 42.2194 96.8513 45.0271 96.8513 50.6598M96.6439 39.3597V42.7047C94.9845 40.1743 92.5472 38.7878 88.9863 38.7878C82.608 38.7878 78.2347 43.6059 78.2347 50.6598C78.2347 58.1123 82.5734 63.0171 89.1419 63.0171C92.4262 63.0171 94.898 61.6826 96.6612 58.9096V62.9651C96.6612 67.298 93.8609 69.6377 90.0062 69.6377C86.1515 69.6377 83.6797 68.5978 83.4895 64.6289L79.3928 64.9062C79.6348 70.9202 84.8205 72.9653 89.5222 72.9653C96.5229 72.9653 100.948 69.0484 100.948 62.6531V39.325H96.6612L96.6439 39.3597ZM103.489 5.14744H107.862V0H103.489V5.14744ZM99.012 33.4497H112.391V29.8274H108.07V9.58428H99.738V13.2066H103.783V29.8101H99.0293V33.4323L99.012 33.4497ZM135.744 33.4497H140.169V19.2726C140.169 16.9328 140.169 13.6398 138.319 11.6814C136.608 9.86159 134.378 9.01235 131.232 9.01235C127.43 9.01235 125.096 10.5375 123.903 13.2066V9.58428H119.616V33.4497H123.903V20.2778C123.903 13.4492 128 12.6 130.092 12.6C131.423 12.6 132.996 12.6519 134.327 13.9865C135.796 15.373 135.761 17.3314 135.761 19.5152V33.4497H135.744ZM162.779 24.4373C162.779 27.8689 160.687 30.59 155.501 30.59C153.168 30.59 151.215 29.3421 151.215 27.1064C151.215 24.3853 153.064 23.6747 155.588 23.1028L162.779 21.5256V24.4373ZM169.779 33.4497L169.676 29.9141C169.053 30.0527 168.673 30.1047 168.293 30.1047C166.91 30.1047 166.91 29.5328 166.91 28.2849V16.8808C166.91 11.6814 163.868 9.01235 157.87 9.01235C154.827 9.01235 152.304 9.63628 150.592 10.7802C148.743 12.028 147.74 14.1251 147.636 16.9848L151.82 17.5567C151.82 13.9345 153.479 12.4093 157.628 12.4093C159.719 12.4093 161.292 13.0332 161.966 13.9865C162.675 14.9917 162.779 16.1876 162.779 18.3367L154.931 19.8618C151.163 20.5724 146.841 22.0109 146.841 27.1584C146.841 31.8378 150.834 34.0216 154.845 34.0216C158.855 34.0216 161.499 32.6351 162.83 29.9141C163.072 32.3925 164.49 33.6403 167.117 33.6403C168.068 33.6403 168.88 33.5883 169.779 33.4497Z" fill="#0D0D10"/>
</g>
</g>
<defs>
<clipPath id="clip0_596_752">
<rect width="169.779" height="73" fill="white"/>
</clipPath>
</defs>
</svg>
